<svg width="25" height="25" viewBox="0 0 25 25" fill="none" xmlns="http://www.w3.org/2000/svg">
<g clip-path="url(#clip0_3970_4350)">
<path d="M24.5 12.5C24.5 5.87258 19.1274 0.5 12.5 0.5C5.87258 0.5 0.5 5.87258 0.5 12.5C0.5 18.4895 4.8882 23.454 10.625 24.3542V15.9688H7.57812V12.5H10.625V9.85625C10.625 6.84875 12.4166 5.1875 15.1576 5.1875C16.4701 5.1875 17.8438 5.42188 17.8438 5.42188V8.375H16.3306C14.84 8.375 14.375 9.30008 14.375 10.25V12.5H17.7031L17.1711 15.9688H14.375V24.3542C20.1118 23.454 24.5 18.4895 24.5 12.5Z" fill="#1877F2"/>
<path d="M17.1711 15.9688L17.7031 12.5H14.375V10.25C14.375 9.30102 14.84 8.375 16.3306 8.375H17.8438V5.42188C17.8438 5.42188 16.4705 5.1875 15.1576 5.1875C12.4166 5.1875 10.625 6.84875 10.625 9.85625V12.5H7.57812V15.9688H10.625V24.3542C11.8674 24.5486 13.1326 24.5486 14.375 24.3542V15.9688H17.1711Z" fill="white"/>
</g>
<defs>
<clipPath id="clip0_3970_4350">
<rect width="24" height="24" fill="white" transform="translate(0.5 0.5)"/>
</clipPath>
</defs>
</svg>
