<svg width="81" height="81" viewBox="0 0 81 81" fill="none" xmlns="http://www.w3.org/2000/svg">
<g id="Frame">
<g id="Group">
<g id="Group_2">
<path id="Vector" fill-rule="evenodd" clip-rule="evenodd" d="M41.7657 15.6782C41.7657 16.0138 41.6323 16.3357 41.395 16.5731C41.1576 16.8104 40.8357 16.9438 40.5001 16.9438C40.1644 16.9438 39.8425 16.8104 39.6051 16.5731C39.3678 16.3357 39.2344 16.0138 39.2344 15.6782V6.81641C39.2344 6.48074 39.3678 6.15883 39.6051 5.92147C39.8425 5.68412 40.1644 5.55078 40.5001 5.55078C40.8357 5.55078 41.1576 5.68412 41.395 5.92147C41.6323 6.15883 41.7657 6.48074 41.7657 6.81641V15.6782ZM53.5036 23.9129C53.214 24.0778 52.8709 24.1215 52.5493 24.0345C52.2276 23.9475 51.9533 23.7369 51.7863 23.4485C51.6193 23.1602 51.573 22.8175 51.6576 22.4951C51.7422 22.1728 51.9508 21.897 52.2379 21.7278L59.9124 17.297C60.202 17.1322 60.545 17.0885 60.8667 17.1755C61.1884 17.2625 61.4626 17.4731 61.6296 17.7615C61.7967 18.0498 61.8429 18.3925 61.7583 18.7149C61.6737 19.0372 61.4651 19.313 61.178 19.4821L53.5036 23.9129ZM48.7348 18.2198L53.1656 10.5454C53.3276 10.2559 53.3689 9.91422 53.2805 9.59448C53.1921 9.27474 52.9813 9.00274 52.6936 8.83747C52.406 8.6722 52.0648 8.627 51.7441 8.71167C51.4234 8.79634 51.149 9.00405 50.9804 9.28975L46.5494 16.9642C46.466 17.1077 46.4118 17.2663 46.3899 17.4309C46.3679 17.5955 46.3787 17.7627 46.4217 17.9231C46.4646 18.0835 46.5387 18.2338 46.6399 18.3654C46.7411 18.497 46.8673 18.6074 47.0112 18.6901C47.1552 18.7728 47.3141 18.8262 47.4787 18.8474C47.6434 18.8685 47.8106 18.8569 47.9708 18.8132C48.1309 18.7695 48.2809 18.6946 48.412 18.5927C48.5431 18.4909 48.6528 18.3642 48.7348 18.2198ZM28.7622 21.7278C29.0493 21.897 29.2579 22.1728 29.3425 22.4951C29.4271 22.8175 29.3808 23.1602 29.2138 23.4485C29.0468 23.7369 28.7726 23.9475 28.4509 24.0345C28.1292 24.1215 27.7862 24.0778 27.4966 23.9129L19.8221 19.4821C19.535 19.313 19.3264 19.0372 19.2418 18.7149C19.1572 18.3925 19.2035 18.0498 19.3705 17.7615C19.5375 17.4731 19.8117 17.2625 20.1334 17.1755C20.4551 17.0885 20.7981 17.1322 21.0877 17.297L28.7622 21.7278ZM34.4505 16.964L30.0197 9.2896C29.8498 9.00674 29.5756 8.80183 29.2562 8.71889C28.9368 8.63594 28.5976 8.68158 28.3115 8.84599C28.0253 9.0104 27.8151 9.28048 27.7259 9.5982C27.6367 9.91593 27.6757 10.256 27.8345 10.5453L32.2653 18.2197C32.4353 18.5025 32.7094 18.7074 33.0288 18.7904C33.3482 18.8733 33.6874 18.8277 33.9736 18.6633C34.2597 18.4989 34.4699 18.2288 34.5591 17.9111C34.6483 17.5934 34.6093 17.2533 34.4505 16.964Z" fill="#FFDA2D"/>
<path id="Vector_2" fill-rule="evenodd" clip-rule="evenodd" d="M39.1453 30.4852L62.7194 59.7615C64.3186 61.3606 64.3184 63.9767 62.7193 65.5758C61.12 67.1749 58.5041 67.1752 56.905 65.576C58.504 67.1749 58.504 69.7911 56.905 71.3901C55.3059 72.989 52.6897 72.9893 51.0909 71.3902L47.9194 68.2187C49.5185 69.8177 49.5182 72.4339 47.9194 74.0329C46.3204 75.632 43.7041 75.632 42.1051 74.033L36.5085 68.4364C38.1075 70.0355 38.1075 72.6516 36.5083 74.2505C34.9095 75.8495 32.293 75.8492 30.6942 74.2505L7.76062 51.3177L12.4112 30.4852H39.1453Z" fill="#FFD6BD"/>
<path id="Vector_3" fill-rule="evenodd" clip-rule="evenodd" d="M43.4857 54.512C42.8355 53.8618 42.8355 52.8075 43.4857 52.1575C44.1359 51.5074 45.1902 51.5074 45.8403 52.1575L57.1662 63.4834C57.8164 64.1336 57.8164 65.1879 57.1662 65.8379C56.516 66.4881 55.4619 66.4881 54.8117 65.8379L43.4857 54.512ZM30.4702 64.7538C29.82 64.1035 29.82 63.0494 30.4702 62.3992C31.1203 61.749 32.1745 61.749 32.8247 62.3992L36.7974 66.3719C37.4476 67.0221 37.4476 68.0762 36.7974 68.7264C36.1472 69.3766 35.0929 69.3766 34.4428 68.7264L30.4702 64.7538ZM36.978 59.6329L45.826 68.4809C46.4762 69.1311 47.5305 69.1311 48.1806 68.4809C48.8306 67.8306 48.8306 66.7764 48.1806 66.1263L39.3326 57.2783C38.6824 56.6281 37.6281 56.6281 36.978 57.2783C36.3278 57.9284 36.3278 58.9827 36.978 59.6329Z" fill="#F9C6AA"/>
<path id="Vector_4" fill-rule="evenodd" clip-rule="evenodd" d="M74.5283 49.6676C74.3299 49.7432 66.671 30.3951 66.4753 30.4682C59.1189 33.2171 53.4791 34.2193 45.8994 27.9662C43.5015 25.9879 40.2686 25.7683 37.8828 27.7604L28.2344 35.8161C27.0813 36.7787 26.4493 38.1173 26.7696 39.585L29.6964 52.9966C37.1375 51.1629 37.1025 45.8678 37.627 40.3004C37.8791 38.1681 41.325 38.7517 45.6498 42.6921L63.4468 60.7484L74.5283 49.6676Z" fill="#EAAB92"/>
<g id="Group_3">
<path id="Vector_5" fill-rule="evenodd" clip-rule="evenodd" d="M65.077 28.2491L72.2726 26.8157C73.0452 26.6617 73.803 27.1678 73.957 27.9403L79.5487 56.0087C79.7026 56.7811 79.1965 57.539 78.4238 57.693L71.2283 59.1264C70.4556 59.2804 69.6978 58.7743 69.5439 58.0018L63.9522 29.9334C63.7983 29.161 64.3044 28.4031 65.077 28.2491ZM15.923 28.2491L8.72761 26.8157C7.95495 26.6617 7.19716 27.1678 7.04322 27.9403L1.45153 56.0087C1.2976 56.7811 1.80369 57.539 2.57636 57.693L9.77191 59.1264C10.5446 59.2804 11.3024 58.7743 11.4563 58.0018L17.048 29.9334C17.2016 29.161 16.6957 28.4031 15.923 28.2491Z" fill="#64B5F6"/>
</g>
</g>
</g>
</g>
</svg>
