<svg width="113" height="112" viewBox="0 0 113 112" fill="none" xmlns="http://www.w3.org/2000/svg">
<g id="Frame">
<g id="Group">
<path id="Vector" d="M97.4868 28.484L67.5048 10.3456C65.927 9.39091 63.9116 10.5271 63.9116 12.3712V20.8742L61.1503 21.3304C51.143 22.9843 41.5184 27.4533 33.2661 33.2651C26.0753 38.3292 19.1376 44.6564 14.2021 51.983C14.0649 52.1279 13.9576 52.2985 13.8863 52.4849C13.8151 52.6714 13.7812 52.87 13.7867 53.0695C13.7922 53.269 13.837 53.4655 13.9184 53.6477C13.9999 53.8299 14.1164 53.9943 14.2614 54.1315C14.4064 54.2687 14.5769 54.376 14.7634 54.4473C14.9498 54.5186 15.1484 54.5524 15.348 54.5469C15.5475 54.5414 15.744 54.4966 15.9262 54.4152C16.1084 54.3337 16.2728 54.2172 16.4099 54.0722C16.4081 54.0744 16.4572 54.0345 16.5316 53.9834C22.3781 49.9563 28.7976 46.6906 35.5521 44.4869C43.7099 41.8254 52.4235 40.5883 60.9708 41.7251C61.9544 41.8675 62.9368 42.0249 63.912 42.2198V50.7228C63.912 52.5671 65.9273 53.7031 67.5052 52.7484L97.4871 34.6101C99.7893 33.2171 99.7893 29.8771 97.4868 28.484Z" fill="#20B894"/>
<path id="Vector_2" d="M15.5132 83.5168L45.4951 101.655C47.0729 102.61 49.0883 101.474 49.0883 99.6296V91.1266L51.8496 90.6704C61.8569 89.0165 71.4815 84.5475 79.7338 78.7357C86.9242 73.6714 93.8621 67.3442 98.7976 60.0176C98.9348 59.8727 99.0421 59.7021 99.1134 59.5157C99.1847 59.3292 99.2185 59.1306 99.213 58.9311C99.2075 58.7316 99.1628 58.5351 99.0813 58.3529C98.9999 58.1707 98.8833 58.0063 98.7383 57.8691C98.5934 57.7319 98.4228 57.6246 98.2364 57.5533C98.0499 57.482 97.8513 57.4482 97.6518 57.4537C97.4523 57.4592 97.2558 57.504 97.0736 57.5854C96.8913 57.6669 96.727 57.7834 96.5898 57.9284C96.5916 57.9262 96.5425 57.9661 96.4681 58.0173C90.6217 62.0445 84.2021 65.3101 77.4477 67.5138C69.2899 70.1754 60.5763 71.4125 52.0289 70.2756C51.0453 70.1333 50.0629 69.9759 49.0878 69.781V61.278C49.0878 59.4336 47.0724 58.2977 45.4946 59.2523L15.5132 77.3904C13.2105 78.7835 13.2105 82.1237 15.5132 83.5168Z" fill="#FD6F71"/>
</g>
</g>
</svg>
