<svg width="113" height="112" viewBox="0 0 113 112" fill="none" xmlns="http://www.w3.org/2000/svg">
<g id="Frame" clip-path="url(#clip0_3969_20485)">
<g id="Group">
<path id="Vector" d="M84.9598 64.4337C84.9598 44.077 68.5013 27.5752 48.1987 27.5752C27.896 27.5752 11.4375 44.077 11.4375 64.4337C11.4375 84.7901 27.8958 101.292 48.1984 101.292C68.5011 101.292 84.9598 84.7901 84.9598 64.4337Z" fill="#89C8FD"/>
<path id="Vector_2" d="M48.198 27.5752C46.3115 27.5752 44.4574 27.7178 42.6475 27.993C60.3159 30.676 73.857 45.969 73.857 64.4337C73.857 82.8984 60.3157 98.1912 42.6475 100.874C44.4846 101.153 46.3401 101.293 48.1982 101.292C68.5009 101.292 84.9592 84.7901 84.9592 64.4337C84.9592 44.077 68.5006 27.5752 48.198 27.5752Z" fill="#60B6FF"/>
<g id="Group_2">
<path id="Vector_3" d="M43.4199 41.9001C37.7571 45.4489 33.5094 51.1261 36.6951 57.5143C39.8805 63.9018 46.9593 61.4177 53.5071 60.5306C60.0552 59.6436 55.1001 79.8712 58.9929 84.8392C62.886 89.807 73.8579 79.8712 72.7965 73.483C71.2241 64.0254 70.6731 60.7076 83.4146 53.9655L83.4485 53.9528C79.154 39.4103 66.1537 28.6196 50.5004 27.6497L50.4984 27.7052C50.4984 27.7052 49.0827 38.3513 43.4199 41.9001Z" fill="#BAEB6C"/>
<path id="Vector_4" d="M71.2306 35.7084C71.2332 35.7101 71.2357 35.7127 71.2383 35.7145C71.2357 35.7127 71.2332 35.711 71.2306 35.7084ZM75.7259 40.0083C75.7259 40.009 75.727 40.0099 75.7277 40.0099L75.7259 40.0083ZM23.7772 81.1126C22.0768 78.5193 26.7859 72.4192 27.8472 67.8058C28.9093 63.1923 22.5382 63.5469 20.5918 61.9498C18.6451 60.353 15.9903 53.4332 14.0437 51.8362L13.7326 51.5909C12.2493 55.5899 11.4375 59.917 11.4375 64.4337C11.4375 76.6172 17.3335 87.418 26.4201 94.1284L26.4313 93.356C26.4313 93.356 27.8473 87.3231 23.7772 81.1126ZM72.7969 73.483L72.7739 73.3454C72.0788 76.1533 71.0537 78.8689 69.7199 81.4357C71.8107 78.9682 73.2079 75.9592 72.7969 73.483Z" fill="#BAEB6C"/>
</g>
<path id="Vector_5" d="M50.5001 27.6494L50.4984 27.705C50.4984 27.705 50.3805 28.5938 50.0762 29.9413C62.9671 34.8205 72.4051 46.7544 73.7038 61.0482C75.3282 58.8265 78.2993 56.6714 83.4143 53.9653L83.4485 53.9526C79.154 39.4101 66.1534 28.6194 50.5001 27.6494Z" fill="#96D629"/>
<path id="Vector_6" d="M48.1489 112C45.5201 112 42.8958 111.783 40.3023 111.354C27.7745 109.285 16.802 102.462 9.40609 92.1412C2.01081 81.8206 -0.922629 69.2375 1.14696 56.7105C1.29659 55.8032 2.15606 55.1896 3.06103 55.339C3.27681 55.3745 3.48348 55.4522 3.66921 55.5676C3.85495 55.6831 4.01612 55.834 4.14349 56.0117C4.27087 56.1895 4.36197 56.3906 4.41157 56.6036C4.46118 56.8166 4.46832 57.0373 4.43259 57.253C2.50912 68.9023 5.2365 80.6039 12.1144 90.2016C18.9924 99.7992 29.1949 106.144 40.8459 108.068C64.8973 112.042 87.6917 95.7062 91.6642 71.6582C93.5876 60.0088 90.8601 48.3075 83.9823 38.7098C77.1053 29.1122 66.9019 22.7675 55.2517 20.8432C54.8159 20.7713 54.4265 20.5293 54.1692 20.1703C53.9119 19.8114 53.8076 19.3649 53.8795 18.9291C54.0298 18.0217 54.8886 17.4082 55.7936 17.5576C68.322 19.6265 79.2945 26.4497 86.6894 36.7702C94.0849 47.0908 97.0185 59.6739 94.9498 72.2009C92.8811 84.7278 86.057 95.6992 75.7357 103.094C67.5724 108.942 57.9953 112 48.1489 112Z" fill="#20B894"/>
<path id="Vector_7" d="M38.0385 40.2254C20.2618 37.2088 9.23352 14.8263 9.23352 14.8263C9.23352 14.8263 27.0284 -2.66603 44.8053 0.34944C62.5823 3.36513 73.6103 25.7476 73.6103 25.7476C73.6103 25.7476 55.8155 43.2408 38.0385 40.2254Z" fill="#49CB5C"/>
<path id="Vector_8" d="M44.8051 0.349963C41.4101 -0.226005 38.016 -0.0525366 34.7441 0.602838C51.7784 4.42746 62.2861 25.7482 62.2861 25.7482C62.2861 25.7482 50.6376 37.1973 36.7744 39.9726C37.1922 40.0667 37.6126 40.1531 38.0381 40.2257C55.815 43.2412 73.6099 25.7479 73.6099 25.7479C73.6099 25.7479 62.582 3.36543 44.8051 0.349963Z" fill="#07B128"/>
<path id="Vector_9" d="M72.6051 23.8889L55.2203 20.9563L38.9816 0.046875C37.6862 0.122781 36.4026 0.288594 35.1365 0.526156L50.3669 20.1369L37.2581 17.9253L26.0728 3.45369C25.0395 3.92031 24.0213 4.4196 23.0197 4.95081L32.4165 17.1085L10.7406 13.4512C9.76737 14.3015 9.2334 14.8261 9.2334 14.8261C9.2334 14.8261 9.59062 15.5499 10.2757 16.7504L31.8338 20.3873L19.8778 29.6322C20.6478 30.4251 21.455 31.2087 22.2993 31.9693L36.3028 21.1418L50.1806 23.4833L31.3066 38.0855C32.4782 38.6324 33.6888 39.106 34.9374 39.4871L54.6496 24.2378L72.0453 27.1721C73.0537 26.2927 73.61 25.7476 73.61 25.7476C73.61 25.7476 73.2657 25.0502 72.6051 23.8889Z" fill="#09A66D"/>
<path id="Vector_10" d="M85.7017 18.4985C90.4707 7.21407 106.994 3.41504 106.994 3.41504C106.994 3.41504 115.786 17.9116 111.017 29.196C106.249 40.4805 89.7247 44.2795 89.7247 44.2795C89.7247 44.2795 80.9327 29.7829 85.7019 18.4985H85.7017Z" fill="#49CB5C"/>
<path id="Vector_11" d="M106.994 3.41504C106.994 3.41504 103.237 4.27976 98.7881 6.40754C101.071 11.2424 104.689 21.0544 101.248 29.196C98.7533 35.0988 93.042 38.9534 88.1621 41.287C89.043 43.1532 89.7257 44.2795 89.7257 44.2795C89.7257 44.2795 106.249 40.4805 111.018 29.196C115.786 17.9116 106.994 3.41504 106.994 3.41504H106.994Z" fill="#07B128"/>
<path id="Vector_12" d="M112.367 19.8889L99.6608 25.2192L108.003 5.27441C107.406 4.09535 106.993 3.41504 106.993 3.41504C106.993 3.41504 106.207 3.59616 104.928 3.99626L96.306 24.6082L90.9591 11.4534C90.0535 12.2525 89.1989 13.1205 88.4238 14.0614L94.4823 28.9681L88.7913 42.5733C89.347 43.6576 89.7236 44.2795 89.7236 44.2795C89.7236 44.2795 90.5781 44.0831 91.952 43.6473L97.8285 29.5994L112.362 23.5035C112.458 22.296 112.453 21.0854 112.367 19.8891L112.367 19.8889Z" fill="#09A66D"/>
</g>
</g>
<defs>
<clipPath id="clip0_3969_20485">
<rect width="112" height="112" fill="white" transform="translate(0.5)"/>
</clipPath>
</defs>
</svg>
