<svg width="113" height="112" viewBox="0 0 113 112" fill="none" xmlns="http://www.w3.org/2000/svg">
<g id="Frame">
<g id="Group">
<path id="Vector" d="M25.8752 88.1567C25.5725 88.1565 25.2766 88.0667 25.0249 87.8984C24.7732 87.7301 24.5771 87.491 24.4612 87.2113C24.3454 86.9316 24.3151 86.6238 24.3741 86.3269C24.4331 86.03 24.5788 85.7572 24.7928 85.5431L86.0428 24.2931C86.3299 24.006 86.7192 23.8447 87.1252 23.8447C87.5312 23.8447 87.9205 24.006 88.2076 24.2931C88.4947 24.5801 88.6559 24.9695 88.6559 25.3754C88.6559 25.7814 88.4947 26.1707 88.2076 26.4578L26.9576 87.7078C26.8157 87.8503 26.647 87.9633 26.4612 88.0403C26.2755 88.1174 26.0763 88.1569 25.8752 88.1567Z" fill="#CBE2FF"/>
<path id="Vector_2" d="M87.1254 88.1557C86.9243 88.1559 86.7252 88.1164 86.5394 88.0394C86.3537 87.9623 86.185 87.8493 86.0431 87.7068L24.7931 26.4568C24.506 26.1698 24.3447 25.7804 24.3447 25.3745C24.3447 24.9685 24.506 24.5791 24.7931 24.2921C25.0801 24.005 25.4695 23.8438 25.8754 23.8438C26.2814 23.8438 26.6707 24.005 26.9578 24.2921L88.2078 85.5421C88.4218 85.7562 88.5675 86.029 88.6265 86.3259C88.6856 86.6229 88.6552 86.9306 88.5394 87.2103C88.4236 87.49 88.2274 87.7291 87.9757 87.8974C87.7241 88.0657 87.4282 88.1556 87.1254 88.1557Z" fill="#CBE2FF"/>
<path id="Vector_3" d="M26.1252 45.1255C36.8949 45.1255 45.6255 36.3949 45.6255 25.6252C45.6255 14.8556 36.8949 6.125 26.1252 6.125C15.3556 6.125 6.625 14.8556 6.625 25.6252C6.625 36.3949 15.3556 45.1255 26.1252 45.1255Z" fill="#D4F7E8"/>
<path id="Vector_4" d="M34.2537 33.5568L28.7736 32.5566H23.4755L17.9998 33.5568C17.0879 33.7222 16.263 34.2025 15.6691 34.914C15.0751 35.6255 14.7499 36.5229 14.75 37.4496V41.4589C18.0636 43.8432 22.0427 45.126 26.125 45.126C30.2073 45.126 34.1864 43.8432 37.5 41.4589V37.4496C37.5003 36.5234 37.1755 35.6264 36.5823 34.915C35.989 34.2036 35.165 33.7229 34.2537 33.5568Z" fill="#59C7FF"/>
<path id="Vector_5" d="M26.1252 18.207C24.658 18.207 23.2238 18.6421 22.0039 19.4572C20.7839 20.2724 19.8331 21.4309 19.2717 22.7864C18.7102 24.1419 18.5633 25.6335 18.8495 27.0725C19.1357 28.5115 19.8423 29.8333 20.8797 30.8708C21.9172 31.9082 23.239 32.6148 24.678 32.901C26.117 33.1872 27.6086 33.0403 28.9641 32.4789C30.3196 31.9174 31.4781 30.9666 32.2933 29.7466C33.1084 28.5267 33.5435 27.0925 33.5435 25.6253C33.5435 23.6578 32.7619 21.771 31.3707 20.3798C29.9795 18.9886 28.0927 18.207 26.1252 18.207Z" fill="#FFCDC0"/>
<path id="Vector_6" d="M86.8743 45.1255C97.644 45.1255 106.375 36.3949 106.375 25.6252C106.375 14.8556 97.644 6.125 86.8743 6.125C76.1046 6.125 67.374 14.8556 67.374 25.6252C67.374 36.3949 76.1046 45.1255 86.8743 45.1255Z" fill="#D4F7E8"/>
<path id="Vector_7" d="M95.0046 33.5568L89.5245 32.5566H84.2264L78.7463 33.5568C77.8352 33.7229 77.0112 34.2034 76.418 34.9146C75.8248 35.6258 75.4999 36.5226 75.5 37.4488V41.458C78.8136 43.8423 82.7927 45.1251 86.875 45.1251C90.9573 45.1251 94.9364 43.8423 98.25 41.458V37.4496C98.2503 36.5235 97.9257 35.6266 97.3326 34.9152C96.7396 34.2038 95.9157 33.7231 95.0046 33.5568Z" fill="#FF7733"/>
<path id="Vector_8" d="M86.8743 18.207C85.4071 18.207 83.9729 18.6421 82.7529 19.4572C81.533 20.2724 80.5822 21.4309 80.0207 22.7864C79.4593 24.1419 79.3124 25.6335 79.5986 27.0725C79.8848 28.5115 80.5914 29.8333 81.6288 30.8708C82.6663 31.9082 83.9881 32.6148 85.4271 32.901C86.8661 33.1872 88.3576 33.0403 89.7131 32.4789C91.0687 31.9174 92.2272 30.9666 93.0424 29.7466C93.8575 28.5267 94.2926 27.0925 94.2926 25.6253C94.2926 23.6578 93.511 21.771 92.1198 20.3798C90.7286 18.9886 88.8417 18.207 86.8743 18.207Z" fill="#FFCDC0"/>
<path id="Vector_9" d="M26.1252 105.875C36.8949 105.875 45.6255 97.144 45.6255 86.3743C45.6255 75.6046 36.8949 66.874 26.1252 66.874C15.3556 66.874 6.625 75.6046 6.625 86.3743C6.625 97.144 15.3556 105.875 26.1252 105.875Z" fill="#D4F7E8"/>
<path id="Vector_10" d="M34.2543 94.3075L28.7741 93.3065H23.476L18.0003 94.3075C17.0893 94.4738 16.2656 94.9544 15.6726 95.6656C15.0795 96.3768 14.7548 97.2735 14.7549 98.1995V102.209C18.0687 104.593 22.0477 105.875 26.1299 105.875C30.212 105.875 34.191 104.593 37.5049 102.209V98.1995C37.5048 97.2728 37.1793 96.3755 36.5852 95.6642C35.9911 94.9529 35.1662 94.4727 34.2543 94.3075Z" fill="#FFDA2C"/>
<path id="Vector_11" d="M31.3586 91.6137C34.2556 88.7167 34.2556 84.0197 31.3586 81.1227C28.4616 78.2257 23.7646 78.2257 20.8676 81.1227C17.9706 84.0197 17.9706 88.7167 20.8676 91.6137C23.7646 94.5107 28.4616 94.5107 31.3586 91.6137Z" fill="#FFCDC0"/>
<path id="Vector_12" d="M86.8743 105.875C97.644 105.875 106.375 97.1449 106.375 86.3752C106.375 75.6056 97.644 66.875 86.8743 66.875C76.1046 66.875 67.374 75.6056 67.374 86.3752C67.374 97.1449 76.1046 105.875 86.8743 105.875Z" fill="#D4F7E8"/>
<path id="Vector_13" d="M95.0046 94.3075L89.5245 93.3065H84.2264L78.7463 94.3075C77.8352 94.4736 77.0112 94.9542 76.418 95.6654C75.8248 96.3766 75.4999 97.2734 75.5 98.1995V102.209C78.8138 104.593 82.7928 105.875 86.875 105.875C90.9572 105.875 94.9362 104.593 98.25 102.209V98.1995C98.2501 97.2735 97.9254 96.3768 97.3323 95.6656C96.7393 94.9544 95.9156 94.4738 95.0046 94.3075Z" fill="#DD99FF"/>
<path id="Vector_14" d="M92.1782 91.6082C95.0381 88.6745 94.9782 83.9779 92.0445 81.118C89.1109 78.2582 84.4143 78.318 81.5544 81.2517C78.6945 84.1854 78.7544 88.882 81.6881 91.7418C84.6217 94.6017 89.3183 94.5419 92.1782 91.6082Z" fill="#FFCDC0"/>
<path id="Vector_15" d="M56.5 69.125C63.7487 69.125 69.625 63.2487 69.625 56C69.625 48.7513 63.7487 42.875 56.5 42.875C49.2513 42.875 43.375 48.7513 43.375 56C43.375 63.2487 49.2513 69.125 56.5 69.125Z" fill="#20B894"/>
<path id="Vector_16" d="M54.7504 61.0307C54.5493 61.0309 54.3502 60.9914 54.1644 60.9144C53.9787 60.8373 53.81 60.7243 53.6681 60.5818L50.1681 57.0818C50.0259 56.9397 49.9132 56.7709 49.8362 56.5852C49.7593 56.3995 49.7197 56.2005 49.7197 55.9995C49.7197 55.7984 49.7593 55.5994 49.8362 55.4137C49.9132 55.228 50.0259 55.0592 50.1681 54.9171C50.3102 54.7749 50.4789 54.6622 50.6647 54.5853C50.8504 54.5083 51.0494 54.4688 51.2504 54.4688C51.4515 54.4688 51.6505 54.5083 51.8362 54.5853C52.0219 54.6622 52.1907 54.7749 52.3328 54.9171L54.7504 57.3338L60.6681 51.4171C60.8102 51.2749 60.9789 51.1622 61.1647 51.0853C61.3504 51.0083 61.5494 50.9688 61.7504 50.9688C61.9515 50.9688 62.1505 51.0083 62.3362 51.0853C62.5219 51.1622 62.6907 51.2749 62.8328 51.4171C62.9749 51.5592 63.0877 51.728 63.1646 51.9137C63.2416 52.0994 63.2811 52.2984 63.2811 52.4995C63.2811 52.7005 63.2416 52.8995 63.1646 53.0852C63.0877 53.271 62.9749 53.4397 62.8328 53.5818L55.8328 60.5818C55.6909 60.7243 55.5222 60.8373 55.3365 60.9144C55.1507 60.9914 54.9515 61.0309 54.7504 61.0307Z" fill="white"/>
</g>
</g>
</svg>
